<svg width="20" height="20" viewBox="0 0 20 20" fill="none" xmlns="http://www.w3.org/2000/svg">
<g clip-path="url(#clip0_419_9312)">
<path d="M15.9332 6.00002C16.0358 5.46934 16.0198 4.92254 15.8863 4.39876C15.7529 3.87498 15.5053 3.38719 15.1613 2.97029C14.8173 2.55339 14.3853 2.21771 13.8964 1.98727C13.4075 1.75683 12.8737 1.63733 12.3332 1.63733C11.7927 1.63733 11.2588 1.75683 10.7699 1.98727C10.281 2.21771 9.84907 2.55339 9.50505 2.97029C9.16104 3.38719 8.91345 3.87498 8.78 4.39876C8.64656 4.92254 8.63057 5.46934 8.73317 6.00002H15.9332ZM19.3332 14V12C19.3332 11.9116 19.2981 11.8268 19.2355 11.7643C19.173 11.7018 19.0882 11.6667 18.9998 11.6667H16.9998C16.6462 11.6667 16.3071 11.8072 16.057 12.0572C15.807 12.3073 15.6665 12.6464 15.6665 13C15.6665 13.3536 15.807 13.6928 16.057 13.9428C16.3071 14.1929 16.6462 14.3334 16.9998 14.3334H18.9998C19.0882 14.3334 19.173 14.2982 19.2355 14.2357C19.2981 14.1732 19.3332 14.0884 19.3332 14Z" fill="white"/>
<path d="M9.92123 1.73499C9.30379 1.11702 8.48583 0.740063 7.61492 0.672114C6.744 0.604165 5.87748 0.849702 5.17166 1.36443C4.46585 1.87915 3.96723 2.62917 3.76575 3.47918C3.56428 4.3292 3.67321 5.22323 4.0729 5.99999H8.0569C8.02082 5.77956 8.00177 5.55668 7.9999 5.33332C7.99868 4.62163 8.17346 3.92067 8.50867 3.29287C8.84389 2.66506 9.32914 2.12988 9.92123 1.73499ZM18.3332 5.99999V3.66665C18.3332 3.57825 18.2981 3.49346 18.2356 3.43095C18.1731 3.36844 18.0883 3.33332 17.9999 3.33332H16.1776C16.4999 3.95063 16.6677 4.63692 16.6666 5.33332C16.6647 5.55668 16.6456 5.77956 16.6096 5.99999H18.3332Z" fill="white"/>
<path d="M4.99992 9.66671C5.36811 9.66671 5.66659 9.36823 5.66659 9.00004C5.66659 8.63185 5.36811 8.33337 4.99992 8.33337C4.63173 8.33337 4.33325 8.63185 4.33325 9.00004C4.33325 9.36823 4.63173 9.66671 4.99992 9.66671Z" fill="white"/>
<path d="M7.66667 13.6667C8.03486 13.6667 8.33333 13.3682 8.33333 13C8.33333 12.6319 8.03486 12.3334 7.66667 12.3334C7.29848 12.3334 7 12.6319 7 13C7 13.3682 7.29848 13.6667 7.66667 13.6667Z" fill="white"/>
<path d="M3.37717 15.5733C3.31422 15.4982 3.23558 15.4378 3.14678 15.3963C3.05798 15.3548 2.96117 15.3333 2.86317 15.3333H0.666504V18C0.666504 18.3536 0.80698 18.6927 1.05703 18.9428C1.30708 19.1928 1.64622 19.3333 1.99984 19.3333H18.3332C18.4216 19.3333 18.5064 19.2982 18.5689 19.2357C18.6314 19.1732 18.6665 19.0884 18.6665 19V15H16.9998C16.4694 15 15.9607 14.7893 15.5856 14.4142C15.2106 14.0391 14.9998 13.5304 14.9998 13C14.9998 12.4695 15.2106 11.9608 15.5856 11.5858C15.9607 11.2107 16.4694 11 16.9998 11H18.6665V6.99997C18.6665 6.91156 18.6314 6.82678 18.5689 6.76427C18.5064 6.70175 18.4216 6.66663 18.3332 6.66663H2.06984C1.55256 6.66653 1.05328 6.47678 0.666504 6.1333V10.6666H2.86317C2.96141 10.6666 3.05844 10.6449 3.14742 10.6033C3.2364 10.5616 3.31516 10.501 3.37817 10.4256L3.91917 9.77497C3.72447 9.50852 3.63378 9.18014 3.66415 8.85154C3.69451 8.52294 3.84383 8.21674 4.08406 7.99048C4.32428 7.76422 4.63886 7.63348 4.96869 7.62282C5.29852 7.61217 5.62089 7.72234 5.87521 7.93263C6.12954 8.14291 6.29831 8.43884 6.34981 8.7648C6.40131 9.09076 6.332 9.4243 6.15491 9.70276C5.97781 9.98121 5.70511 10.1854 5.38807 10.277C5.07102 10.3685 4.73145 10.3411 4.43317 10.2L3.8895 10.8533C3.76404 11.0036 3.60708 11.1245 3.42973 11.2075C3.25237 11.2904 3.05896 11.3334 2.86317 11.3333H0.666504V12.6666H6.3805C6.46164 12.3524 6.65458 12.0786 6.92317 11.8964C7.19177 11.7143 7.51757 11.6364 7.8395 11.6773C8.16144 11.7182 8.45742 11.8751 8.67194 12.1186C8.88647 12.3621 9.00483 12.6754 9.00483 13C9.00483 13.3245 8.88647 13.6379 8.67194 13.8814C8.45742 14.1249 8.16144 14.2818 7.8395 14.3227C7.51757 14.3636 7.19177 14.2856 6.92317 14.1035C6.65458 13.9214 6.46164 13.6475 6.3805 13.3333H0.666504V14.6666H2.86317C3.05877 14.6664 3.25203 14.7093 3.42922 14.7921C3.60642 14.8749 3.76322 14.9958 3.8885 15.146L4.43317 15.8C4.60975 15.7138 4.80337 15.6683 4.99984 15.6666C5.30146 15.6646 5.59497 15.7643 5.83304 15.9495C6.07111 16.1347 6.23985 16.3947 6.31207 16.6876C6.38429 16.9804 6.35577 17.2891 6.23111 17.5637C6.10644 17.8384 5.89291 18.0631 5.62493 18.2015C5.35695 18.34 5.05015 18.3841 4.754 18.3269C4.45786 18.2696 4.18962 18.1143 3.99255 17.8859C3.79548 17.6576 3.68107 17.3695 3.66776 17.0682C3.65444 16.7668 3.74301 16.4698 3.91917 16.225L3.37717 15.5733Z" fill="white"/>
<path d="M4.99992 17.6667C5.36811 17.6667 5.66659 17.3682 5.66659 17C5.66659 16.6319 5.36811 16.3334 4.99992 16.3334C4.63173 16.3334 4.33325 16.6319 4.33325 17C4.33325 17.3682 4.63173 17.6667 4.99992 17.6667Z" fill="white"/>
<path d="M0.66658 4.67004C0.665582 4.70997 0.666917 4.74993 0.67058 4.78971C0.71373 5.12841 0.880414 5.43926 1.13866 5.66263C1.3969 5.88599 1.72853 6.00615 2.06991 6.00004H3.33125C2.97906 5.1562 2.90538 4.22199 3.12091 3.33337H1.99991C1.64672 3.33478 1.3084 3.47571 1.05866 3.72545C0.808911 3.97519 0.667985 4.31352 0.66658 4.66671V4.67004Z" fill="white"/>
</g>
<defs>
<clipPath id="clip0_419_9312">
<rect width="20" height="20" fill="white"/>
</clipPath>
</defs>
</svg>
