<svg width="20" height="20" viewBox="0 0 20 20" fill="none" xmlns="http://www.w3.org/2000/svg">
<path d="M18.4208 5.92081C18.6436 5.67245 18.7628 5.34813 18.7537 5.01459C18.7447 4.68104 18.6082 4.36365 18.3722 4.12771C18.1363 3.89177 17.8189 3.75524 17.4854 3.74621C17.1518 3.73717 16.8275 3.85633 16.5791 4.07915L16.25 4.40831L17.7958 5.95415C17.8853 6.04189 17.9624 6.14142 18.025 6.24998C18.0371 6.26123 18.0457 6.27568 18.05 6.29165L18.0916 6.24998L18.4208 5.92081ZM17.2041 7.62082L16.3708 8.45415C16.3318 8.49288 16.3008 8.53897 16.2796 8.58974C16.2585 8.64052 16.2476 8.69498 16.2476 8.74998C16.2476 8.80499 16.2585 8.85945 16.2796 8.91022C16.3008 8.961 16.3318 9.00708 16.3708 9.04581L16.425 9.09165C16.4958 9.1411 16.5803 9.1673 16.6666 9.16665C16.7215 9.16697 16.7758 9.15646 16.8266 9.13572C16.8774 9.11498 16.9235 9.08443 16.9625 9.04581L17.7958 8.21248C18.0514 7.95878 18.2118 7.62476 18.25 7.26665C18.2884 6.92866 18.2183 6.58722 18.05 6.29165L17.4125 6.92915C17.4388 7.05265 17.4335 7.1808 17.3971 7.30172C17.3606 7.42263 17.2943 7.53239 17.2041 7.62082Z" fill="#F1F1F1"/>
<path d="M19.0208 6.49583C19.1234 6.90221 19.1187 7.3283 19.0069 7.73227C18.8951 8.13624 18.6802 8.50419 18.3833 8.8L17.5499 9.63333C17.3157 9.86782 16.998 9.99971 16.6666 10C16.4081 10.0016 16.1558 9.92135 15.9458 9.77083L15.8958 9.7375L15.8333 9.68333L14.6333 10.8833C14.475 11.0453 14.2743 11.1594 14.0541 11.2125L12.3874 11.6292C12.2879 11.6539 12.1858 11.6664 12.0833 11.6667C11.7518 11.6664 11.4341 11.5345 11.1999 11.3C11.1583 11.2583 11.1208 11.2125 11.0833 11.1667C11.0105 11.2195 10.9232 11.2486 10.8333 11.25H7.91659C7.80608 11.25 7.7001 11.2061 7.62196 11.128C7.54382 11.0498 7.49992 10.9438 7.49992 10.8333C7.49992 10.7228 7.54382 10.6168 7.62196 10.5387C7.7001 10.4606 7.80608 10.4167 7.91659 10.4167H10.8333C10.8332 10.3141 10.8458 10.212 10.8708 10.1125L11.0124 9.54167C10.9565 9.56873 10.8953 9.58297 10.8333 9.58333H7.91659C7.80608 9.58333 7.7001 9.53943 7.62196 9.46129C7.54382 9.38315 7.49992 9.27717 7.49992 9.16667C7.49992 9.05616 7.54382 8.95018 7.62196 8.87204C7.7001 8.7939 7.80608 8.75 7.91659 8.75H10.8333C10.899 8.74983 10.9638 8.76522 11.0225 8.79491C11.0812 8.8246 11.132 8.86775 11.1708 8.92083L11.2874 8.44583C11.3405 8.22566 11.4546 8.02493 11.6166 7.86667L13.2333 6.25H1.24992C1.13941 6.25 1.03343 6.2939 0.955291 6.37204C0.877151 6.45018 0.833252 6.55616 0.833252 6.66667V15.8333C0.833252 15.9438 0.877151 16.0498 0.955291 16.128C1.03343 16.2061 1.13941 16.25 1.24992 16.25H18.7499C18.8604 16.25 18.9664 16.2061 19.0445 16.128C19.1227 16.0498 19.1666 15.9438 19.1666 15.8333V6.66667C19.1669 6.57841 19.1392 6.49232 19.0874 6.42083L19.0208 6.49583ZM5.83325 10.4167C5.83325 10.5272 5.78935 10.6332 5.71121 10.7113C5.63307 10.7894 5.52709 10.8333 5.41659 10.8333C5.30608 10.8333 5.2001 10.7894 5.12196 10.7113C5.04382 10.6332 4.99992 10.5272 4.99992 10.4167V10.3542C4.99992 10.3077 4.99076 10.2616 4.97296 10.2186C4.95516 10.1757 4.92907 10.1366 4.89619 10.1037C4.8633 10.0708 4.82426 10.0448 4.78129 10.027C4.73832 10.0092 4.69226 10 4.64575 10H4.52075C4.47424 10 4.42819 10.0092 4.38522 10.027C4.34225 10.0448 4.30321 10.0708 4.27032 10.1037C4.23743 10.1366 4.21134 10.1757 4.19354 10.2186C4.17575 10.2616 4.16659 10.3077 4.16659 10.3542C4.16631 10.4205 4.18448 10.4857 4.21906 10.5423C4.25364 10.599 4.30327 10.6449 4.36242 10.675L5.17492 11.0917C5.38318 11.1983 5.55515 11.3643 5.66911 11.5686C5.78307 11.7729 5.83389 12.0065 5.81517 12.2397C5.79644 12.4729 5.70899 12.6953 5.56389 12.8789C5.41878 13.0624 5.22252 13.1988 4.99992 13.2708V13.3333C4.99992 13.4438 4.95602 13.5498 4.87788 13.628C4.79974 13.7061 4.69376 13.75 4.58325 13.75C4.47275 13.75 4.36676 13.7061 4.28862 13.628C4.21048 13.5498 4.16659 13.4438 4.16659 13.3333V13.2708C3.92572 13.1969 3.71485 13.0478 3.56489 12.8454C3.41492 12.6429 3.33375 12.3978 3.33325 12.1458V12.0833C3.33325 11.9728 3.37715 11.8668 3.45529 11.7887C3.53343 11.7106 3.63941 11.6667 3.74992 11.6667C3.86043 11.6667 3.96641 11.7106 4.04455 11.7887C4.12269 11.8668 4.16659 11.9728 4.16659 12.0833V12.1458C4.16659 12.2398 4.2039 12.3298 4.27032 12.3963C4.33674 12.4627 4.42682 12.5 4.52075 12.5H4.64575C4.73968 12.5 4.82977 12.4627 4.89619 12.3963C4.9626 12.3298 4.99992 12.2398 4.99992 12.1458C5.00019 12.0795 4.98202 12.0143 4.94745 11.9577C4.91287 11.901 4.86324 11.8551 4.80409 11.825L3.99159 11.4083C3.78333 11.3017 3.61135 11.1357 3.49739 10.9314C3.38344 10.7271 3.33261 10.4935 3.35134 10.2603C3.37007 10.0271 3.45751 9.80466 3.60262 9.62113C3.74772 9.43759 3.94398 9.30119 4.16659 9.22917V9.16667C4.16659 9.05616 4.21048 8.95018 4.28862 8.87204C4.36676 8.7939 4.47275 8.75 4.58325 8.75C4.69376 8.75 4.79974 8.7939 4.87788 8.87204C4.95602 8.95018 4.99992 9.05616 4.99992 9.16667V9.22917C5.24078 9.30306 5.45165 9.45215 5.60162 9.65461C5.75158 9.85706 5.83276 10.1022 5.83325 10.3542V10.4167ZM15.8333 14.5833H7.91659C7.80608 14.5833 7.7001 14.5394 7.62196 14.4613C7.54382 14.3832 7.49992 14.2772 7.49992 14.1667C7.49992 14.0562 7.54382 13.9502 7.62196 13.872C7.7001 13.7939 7.80608 13.75 7.91659 13.75H15.8333C15.9438 13.75 16.0497 13.7939 16.1279 13.872C16.206 13.9502 16.2499 14.0562 16.2499 14.1667C16.2499 14.2772 16.206 14.3832 16.1279 14.4613C16.0497 14.5394 15.9438 14.5833 15.8333 14.5833Z" fill="#F1F1F1"/>
<path d="M16.9123 6.25L15.6623 5L14.4123 6.25L12.2081 8.45417C12.1548 8.50834 12.1174 8.57606 12.0998 8.65L11.6831 10.3167C11.6655 10.3864 11.6662 10.4595 11.6852 10.5288C11.7042 10.5982 11.7408 10.6615 11.7915 10.7125C11.8691 10.7895 11.9738 10.8329 12.0831 10.8333C12.1163 10.8373 12.1499 10.8373 12.1831 10.8333L13.8498 10.4167C13.9237 10.3991 13.9915 10.3616 14.0456 10.3083L15.4165 8.91667L17.3998 6.92917C17.3694 6.78374 17.297 6.65044 17.1915 6.54583L16.9123 6.25Z" fill="#F1F1F1"/>
</svg>
